<?xml version="1.0" encoding="UTF-8"?>
<!DOCTYPE svg PUBLIC "-//W3C//DTD SVG 1.1//EN" "http://www.w3.org/Graphics/SVG/1.1/DTD/svg11.dtd">
<svg xmlns="http://www.w3.org/2000/svg" version="1.1" width="400px" height="400px" style="shape-rendering:geometricPrecision; text-rendering:geometricPrecision; image-rendering:optimizeQuality; fill-rule:evenodd; clip-rule:evenodd" xmlns:xlink="http://www.w3.org/1999/xlink">
<g><path style="opacity:1" fill="#5271ff" d="M -0.5,-0.5 C 132.833,-0.5 266.167,-0.5 399.5,-0.5C 399.5,132.833 399.5,266.167 399.5,399.5C 266.167,399.5 132.833,399.5 -0.5,399.5C -0.5,266.167 -0.5,132.833 -0.5,-0.5 Z"/></g>
<g><path style="opacity:1" fill="#f6f7ff" d="M 188.5,69.5 C 229.765,67.3702 256.265,86.0369 268,125.5C 271.666,168.056 253.166,195.223 212.5,207C 183.129,210.506 159.629,200.672 142,177.5C 125.547,148.889 126.881,121.222 146,94.5C 157.38,81.2568 171.547,72.9235 188.5,69.5 Z"/></g>
<g><path style="opacity:1" fill="#7e94ff" d="M 194.5,75.5 C 195.209,74.596 196.209,74.2627 197.5,74.5C 197.827,84.015 197.494,93.3483 196.5,102.5C 197.138,93.1045 196.471,84.1045 194.5,75.5 Z"/></g>
<g><path style="opacity:1" fill="#5472ff" d="M 201.5,74.5 C 214.344,78.6776 223.344,87.0109 228.5,99.5C 219.524,100.68 210.524,101.68 201.5,102.5C 201.5,93.1667 201.5,83.8333 201.5,74.5 Z"/></g>
<g><path style="opacity:1" fill="#5673ff" d="M 194.5,75.5 C 196.471,84.1045 197.138,93.1045 196.5,102.5C 187.334,102.637 178.334,101.637 169.5,99.5C 175.032,88.57 183.365,80.57 194.5,75.5 Z"/></g>
<g><path style="opacity:1" fill="#5b77ff" d="M 179.5,76.5 C 180.552,76.3505 181.552,76.5172 182.5,77C 175.182,82.4049 169.515,89.2382 165.5,97.5C 161.2,98.21 157.033,97.5433 153,95.5C 152.333,94.8333 152.333,94.1667 153,93.5C 160.976,86.3306 169.809,80.664 179.5,76.5 Z"/></g>
<g><path style="opacity:1" fill="#5a76ff" d="M 216.5,77.5 C 228.241,79.463 238.241,85.1297 246.5,94.5C 242.528,96.5197 238.362,97.853 234,98.5C 231.181,93.699 228.181,89.0323 225,84.5C 222.584,81.5766 219.75,79.2433 216.5,77.5 Z"/></g>
<g><path style="opacity:1" fill="#5572ff" d="M 248.5,98.5 C 250.371,98.8588 251.871,99.8588 253,101.5C 260.267,111.957 264.1,123.623 264.5,136.5C 256.833,136.5 249.167,136.5 241.5,136.5C 241.666,131.156 241.499,125.823 241,120.5C 239.024,114.265 237.524,107.932 236.5,101.5C 240.8,101.245 244.8,100.245 248.5,98.5 Z"/></g>
<g><path style="opacity:1" fill="#5572ff" d="M 157.5,136.5 C 150.167,136.5 142.833,136.5 135.5,136.5C 135.5,134.5 135.5,132.5 135.5,130.5C 136.993,118.507 141.493,107.84 149,98.5C 153.573,100.744 158.406,102.411 163.5,103.5C 159.031,113.975 157.031,124.975 157.5,136.5 Z"/></g>
<g><path style="opacity:1" fill="#5371ff" d="M 189.5,106.5 C 191.607,107.468 193.941,107.802 196.5,107.5C 196.5,117.167 196.5,126.833 196.5,136.5C 184.833,136.5 173.167,136.5 161.5,136.5C 161.592,125.872 163.425,115.539 167,105.5C 168.062,104.903 169.228,104.57 170.5,104.5C 176.761,105.893 183.094,106.559 189.5,106.5 Z"/></g>
<g><path style="opacity:1" fill="#5472ff" d="M 228.5,103.5 C 229.822,103.33 230.989,103.663 232,104.5C 235.454,114.889 237.287,125.556 237.5,136.5C 225.5,136.5 213.5,136.5 201.5,136.5C 201.5,126.5 201.5,116.5 201.5,106.5C 210.713,106.15 219.713,105.15 228.5,103.5 Z"/></g>
<g><path style="opacity:1" fill="#8096ff" d="M 189.5,106.5 C 192.167,106.5 194.833,106.5 197.5,106.5C 197.827,116.681 197.494,126.681 196.5,136.5C 196.5,126.833 196.5,117.167 196.5,107.5C 193.941,107.802 191.607,107.468 189.5,106.5 Z"/></g>
<g><path style="opacity:1" fill="#ccd4ff" d="M 135.5,130.5 C 135.5,132.5 135.5,134.5 135.5,136.5C 142.833,136.5 150.167,136.5 157.5,136.5C 150.018,137.492 142.352,137.825 134.5,137.5C 134.198,134.941 134.532,132.607 135.5,130.5 Z"/></g>
<g><path style="opacity:1" fill="#a4b4ff" d="M 157.5,148.5 C 156.532,146.393 156.198,144.059 156.5,141.5C 149.5,141.5 142.5,141.5 135.5,141.5C 135.5,143.167 135.5,144.833 135.5,146.5C 134.539,144.735 134.205,142.735 134.5,140.5C 142.167,140.5 149.833,140.5 157.5,140.5C 157.5,143.167 157.5,145.833 157.5,148.5 Z"/></g>
<g><path style="opacity:1" fill="#5372ff" d="M 157.5,148.5 C 158.295,156.847 159.962,165.014 162.5,173C 157.934,174.808 153.267,176.308 148.5,177.5C 143.74,172.324 140.24,166.324 138,159.5C 136.922,155.202 136.089,150.869 135.5,146.5C 135.5,144.833 135.5,143.167 135.5,141.5C 142.5,141.5 149.5,141.5 156.5,141.5C 156.198,144.059 156.532,146.393 157.5,148.5 Z"/></g>
<g><path style="opacity:1" fill="#5271ff" d="M 161.5,141.5 C 173.167,141.5 184.833,141.5 196.5,141.5C 196.5,150.5 196.5,159.5 196.5,168.5C 193.615,168.194 190.948,168.527 188.5,169.5C 181.014,169.638 173.68,170.638 166.5,172.5C 163.67,162.351 162.003,152.017 161.5,141.5 Z"/></g>
<g><path style="opacity:1" fill="#90a2ff" d="M 161.5,141.5 C 173.322,140.505 185.322,140.172 197.5,140.5C 197.5,150.167 197.5,159.833 197.5,169.5C 194.5,169.5 191.5,169.5 188.5,169.5C 190.948,168.527 193.615,168.194 196.5,168.5C 196.5,159.5 196.5,150.5 196.5,141.5C 184.833,141.5 173.167,141.5 161.5,141.5 Z"/></g>
<g><path style="opacity:1" fill="#5472ff" d="M 201.5,141.5 C 213.5,141.5 225.5,141.5 237.5,141.5C 237.789,151.869 236.122,161.869 232.5,171.5C 222.231,169.985 211.898,169.318 201.5,169.5C 201.5,160.167 201.5,150.833 201.5,141.5 Z"/></g>
<g><path style="opacity:1" fill="#5472ff" d="M 241.5,141.5 C 249.167,141.5 256.833,141.5 264.5,141.5C 264.231,155.348 259.564,167.348 250.5,177.5C 246.437,175.399 242.103,174.066 237.5,173.5C 238.501,167.823 239.668,162.157 241,156.5C 241.499,151.511 241.666,146.511 241.5,141.5 Z"/></g>
<g><path style="opacity:1" fill="#5774ff" d="M 185.5,173.5 C 189.5,173.5 193.5,173.5 197.5,173.5C 197.666,183.172 197.5,192.839 197,202.5C 184.858,197.529 175.692,189.196 169.5,177.5C 174.75,175.376 180.084,174.043 185.5,173.5 Z"/></g>
<g><path style="opacity:1" fill="#5472ff" d="M 201.5,173.5 C 209.208,173.358 216.875,173.858 224.5,175C 226.651,175.265 228.318,176.265 229.5,178C 224.527,187.291 217.527,194.624 208.5,200C 206.187,200.662 203.854,201.162 201.5,201.5C 201.5,192.167 201.5,182.833 201.5,173.5 Z"/></g>
<g><path style="opacity:1" fill="#5b77ff" d="M 161.5,177.5 C 162.833,177.5 164.167,177.5 165.5,177.5C 169.339,187.343 175.673,195.176 184.5,201C 171.108,198.634 160.108,192.134 151.5,181.5C 155.138,180.673 158.471,179.339 161.5,177.5 Z"/></g>
<g><path style="opacity:1" fill="#5975ff" d="M 234.5,177.5 C 239.225,178.351 243.892,179.518 248.5,181C 239.473,191.838 228.139,198.505 214.5,201C 223.129,194.957 229.795,187.124 234.5,177.5 Z"/></g>
<g><path style="opacity:1" fill="#c6d0ff" d="M 132.5,229.5 C 126.167,229.5 119.833,229.5 113.5,229.5C 113.5,231.167 113.5,232.833 113.5,234.5C 112.539,232.735 112.205,230.735 112.5,228.5C 119.354,228.176 126.021,228.509 132.5,229.5 Z"/></g>
<g><path style="opacity:1" fill="#c4cfff" d="M 153.5,229.5 C 149.5,229.5 145.5,229.5 141.5,229.5C 141.5,231.167 141.5,232.833 141.5,234.5C 140.539,232.735 140.205,230.735 140.5,228.5C 145.032,228.182 149.366,228.515 153.5,229.5 Z"/></g>
<g><path style="opacity:1" fill="#bcc7ff" d="M 234.5,229.5 C 224.833,229.5 215.167,229.5 205.5,229.5C 205.5,232.5 205.5,235.5 205.5,238.5C 204.521,235.375 204.187,232.042 204.5,228.5C 214.681,228.173 224.681,228.506 234.5,229.5 Z"/></g>
<g><path style="opacity:1" fill="#c4cfff" d="M 264.5,229.5 C 261.5,229.5 258.5,229.5 255.5,229.5C 255.5,231.167 255.5,232.833 255.5,234.5C 254.539,232.735 254.205,230.735 254.5,228.5C 258.042,228.187 261.375,228.521 264.5,229.5 Z"/></g>
<g><path style="opacity:1" fill="#f9faff" d="M 132.5,229.5 C 138.828,233.648 139.828,238.815 135.5,245C 139.959,251.645 138.625,256.978 131.5,261C 125.175,261.5 118.842,261.666 112.5,261.5C 112.5,259.5 112.5,257.5 112.5,255.5C 113.833,255.5 115.167,255.5 116.5,255.5C 116.825,248.313 116.491,241.313 115.5,234.5C 114.833,234.5 114.167,234.5 113.5,234.5C 113.5,232.833 113.5,231.167 113.5,229.5C 119.833,229.5 126.167,229.5 132.5,229.5 Z"/></g>
<g><path style="opacity:1" fill="#f9faff" d="M 141.5,234.5 C 141.5,232.833 141.5,231.167 141.5,229.5C 145.5,229.5 149.5,229.5 153.5,229.5C 153.5,231.167 153.5,232.833 153.5,234.5C 152.5,234.5 151.5,234.5 150.5,234.5C 150.334,240.176 150.501,245.843 151,251.5C 153.971,255.092 157.304,255.425 161,252.5C 161.499,246.509 161.666,240.509 161.5,234.5C 160.5,234.5 159.5,234.5 158.5,234.5C 158.5,232.5 158.5,230.5 158.5,228.5C 162.833,228.5 167.167,228.5 171.5,228.5C 171.5,230.5 171.5,232.5 171.5,234.5C 170.5,234.5 169.5,234.5 168.5,234.5C 168.666,240.842 168.5,247.175 168,253.5C 164.551,260.474 159.051,262.974 151.5,261C 149.376,259.878 147.543,258.378 146,256.5C 144.383,248.956 142.883,241.623 141.5,234.5 Z"/></g>
<g><path style="opacity:1" fill="#f7f8ff" d="M 184.5,228.5 C 187.572,228.183 190.572,228.516 193.5,229.5C 196.377,238.13 199.044,246.797 201.5,255.5C 202.5,255.5 203.5,255.5 204.5,255.5C 204.5,257.5 204.5,259.5 204.5,261.5C 200.5,261.5 196.5,261.5 192.5,261.5C 192.5,259.5 192.5,257.5 192.5,255.5C 195.971,255.101 196.304,253.601 193.5,251C 190.183,250.502 186.85,250.335 183.5,250.5C 183.579,251.93 183.246,253.264 182.5,254.5C 183.325,255.386 184.325,255.719 185.5,255.5C 185.5,257.5 185.5,259.5 185.5,261.5C 181.5,261.5 177.5,261.5 173.5,261.5C 173.5,259.5 173.5,257.5 173.5,255.5C 174.5,255.5 175.5,255.5 176.5,255.5C 179.167,246.5 181.833,237.5 184.5,228.5 Z"/></g>
<g><path style="opacity:1" fill="#fafbff" d="M 234.5,229.5 C 234.5,232.5 234.5,235.5 234.5,238.5C 232.167,238.5 229.833,238.5 227.5,238.5C 227.5,237.167 227.5,235.833 227.5,234.5C 226.167,234.5 224.833,234.5 223.5,234.5C 223.5,241.5 223.5,248.5 223.5,255.5C 224.5,255.5 225.5,255.5 226.5,255.5C 226.5,257.167 226.5,258.833 226.5,260.5C 222.167,260.5 217.833,260.5 213.5,260.5C 213.5,258.833 213.5,257.167 213.5,255.5C 214.5,255.5 215.5,255.5 216.5,255.5C 216.5,248.5 216.5,241.5 216.5,234.5C 215.167,234.5 213.833,234.5 212.5,234.5C 212.5,235.833 212.5,237.167 212.5,238.5C 210.167,238.5 207.833,238.5 205.5,238.5C 205.5,235.5 205.5,232.5 205.5,229.5C 215.167,229.5 224.833,229.5 234.5,229.5 Z"/></g>
<g><path style="opacity:1" fill="#f6f7ff" d="M 237.5,255.5 C 238.833,255.5 240.167,255.5 241.5,255.5C 241.825,248.313 241.491,241.313 240.5,234.5C 239.5,234.5 238.5,234.5 237.5,234.5C 237.5,232.5 237.5,230.5 237.5,228.5C 242.167,228.5 246.833,228.5 251.5,228.5C 251.5,230.5 251.5,232.5 251.5,234.5C 250.5,234.5 249.5,234.5 248.5,234.5C 248.5,241.5 248.5,248.5 248.5,255.5C 249.5,255.5 250.5,255.5 251.5,255.5C 251.5,257.5 251.5,259.5 251.5,261.5C 246.833,261.5 242.167,261.5 237.5,261.5C 237.5,259.5 237.5,257.5 237.5,255.5 Z"/></g>
<g><path style="opacity:1" fill="#fbfcff" d="M 285.5,234.5 C 284.507,242.984 284.174,251.651 284.5,260.5C 282.167,260.5 279.833,260.5 277.5,260.5C 273.525,254.028 269.359,247.695 265,241.5C 264.833,243.833 264.667,246.167 264.5,248.5C 264.529,251.269 265.195,253.603 266.5,255.5C 266.5,257.167 266.5,258.833 266.5,260.5C 262.5,260.5 258.5,260.5 254.5,260.5C 254.5,258.833 254.5,257.167 254.5,255.5C 255.5,255.5 256.5,255.5 257.5,255.5C 258.128,248.087 257.461,241.087 255.5,234.5C 255.5,232.833 255.5,231.167 255.5,229.5C 258.5,229.5 261.5,229.5 264.5,229.5C 269.152,235.459 273.319,241.792 277,248.5C 277.167,246.167 277.333,243.833 277.5,241.5C 276.923,237.126 276.256,232.793 275.5,228.5C 279.5,228.5 283.5,228.5 287.5,228.5C 287.975,231.082 287.308,233.082 285.5,234.5 Z"/></g>
<g><path style="opacity:1" fill="#8fa3ff" d="M 115.5,234.5 C 116.491,241.313 116.825,248.313 116.5,255.5C 115.167,255.5 113.833,255.5 112.5,255.5C 113.209,254.596 114.209,254.263 115.5,254.5C 115.5,247.833 115.5,241.167 115.5,234.5 Z"/></g>
<g><path style="opacity:1" fill="#617aff" d="M 122.5,234.5 C 124.924,234.192 127.257,234.526 129.5,235.5C 130.767,237.371 130.767,239.204 129.5,241C 127.19,241.497 124.857,241.663 122.5,241.5C 122.5,239.167 122.5,236.833 122.5,234.5 Z"/></g>
<g><path style="opacity:1" fill="#a9b9ff" d="M 240.5,234.5 C 241.491,241.313 241.825,248.313 241.5,255.5C 240.167,255.5 238.833,255.5 237.5,255.5C 238.209,254.596 239.209,254.263 240.5,254.5C 240.5,247.833 240.5,241.167 240.5,234.5 Z"/></g>
<g><path style="opacity:1" fill="#9badff" d="M 285.5,234.5 C 285.5,243.5 285.5,252.5 285.5,261.5C 282.615,261.806 279.948,261.473 277.5,260.5C 279.833,260.5 282.167,260.5 284.5,260.5C 284.174,251.651 284.507,242.984 285.5,234.5 Z"/></g>
<g><path style="opacity:1" fill="#607aff" d="M 191.5,243.5 C 190.903,244.139 190.07,244.472 189,244.5C 187.624,244.316 186.791,243.649 186.5,242.5C 188.456,233.43 190.123,233.764 191.5,243.5 Z"/></g>
<g><path style="opacity:1" fill="#a2b1ff" d="M 186.5,242.5 C 186.791,243.649 187.624,244.316 189,244.5C 190.07,244.472 190.903,244.139 191.5,243.5C 192.043,243.56 192.376,243.893 192.5,244.5C 190.257,245.474 187.924,245.808 185.5,245.5C 185.263,244.209 185.596,243.209 186.5,242.5 Z"/></g>
<g><path style="opacity:1" fill="#9cadff" d="M 129.5,248.5 C 127.5,248.5 125.5,248.5 123.5,248.5C 123.5,250.5 123.5,252.5 123.5,254.5C 125.5,254.5 127.5,254.5 129.5,254.5C 127.393,255.468 125.059,255.802 122.5,255.5C 122.5,252.833 122.5,250.167 122.5,247.5C 125.059,247.198 127.393,247.532 129.5,248.5 Z"/></g>
<g><path style="opacity:1" fill="#5573ff" d="M 129.5,248.5 C 132.019,250.359 132.019,252.359 129.5,254.5C 127.5,254.5 125.5,254.5 123.5,254.5C 123.5,252.5 123.5,250.5 123.5,248.5C 125.5,248.5 127.5,248.5 129.5,248.5 Z"/></g>
<g><path style="opacity:1" fill="#acbbff" d="M 213.5,255.5 C 213.5,257.167 213.5,258.833 213.5,260.5C 217.833,260.5 222.167,260.5 226.5,260.5C 222.03,261.486 217.363,261.819 212.5,261.5C 212.205,259.265 212.539,257.265 213.5,255.5 Z"/></g>
<g><path style="opacity:1" fill="#a7b7ff" d="M 266.5,255.5 C 267.461,257.265 267.795,259.265 267.5,261.5C 262.968,261.818 258.634,261.485 254.5,260.5C 258.5,260.5 262.5,260.5 266.5,260.5C 266.5,258.833 266.5,257.167 266.5,255.5 Z"/></g>
<g><path style="opacity:1" fill="#95a7ff" d="M 142.5,274.5 C 138.167,274.5 133.833,274.5 129.5,274.5C 129.5,276.5 129.5,278.5 129.5,280.5C 128.532,278.393 128.198,276.059 128.5,273.5C 133.363,273.181 138.03,273.514 142.5,274.5 Z"/></g>
<g><path style="opacity:1" fill="#95a7ff" d="M 192.5,274.5 C 186.833,274.5 181.167,274.5 175.5,274.5C 175.5,276.5 175.5,278.5 175.5,280.5C 174.532,278.393 174.198,276.059 174.5,273.5C 180.69,273.177 186.69,273.51 192.5,274.5 Z"/></g>
<g><path style="opacity:1" fill="#f9f9ff" d="M 225.5,278.5 C 227.075,280.114 227.741,282.114 227.5,284.5C 225.167,284.5 222.833,284.5 220.5,284.5C 219.172,280.746 216.506,279.579 212.5,281C 211.167,282.333 211.167,283.667 212.5,285C 216.965,286.543 221.299,288.377 225.5,290.5C 229.176,300.136 225.843,305.803 215.5,307.5C 207.57,306.567 203.57,302.233 203.5,294.5C 205.833,294.5 208.167,294.5 210.5,294.5C 210.86,300.264 213.693,301.931 219,299.5C 219.667,298.167 219.667,296.833 219,295.5C 216.734,294.044 214.234,293.21 211.5,293C 204.753,290.001 202.586,284.834 205,277.5C 209.439,273.658 214.605,272.491 220.5,274C 222.618,275.049 224.284,276.549 225.5,278.5 Z"/></g>
<g><path style="opacity:1" fill="#fafbff" d="M 129.5,280.5 C 129.5,278.5 129.5,276.5 129.5,274.5C 133.833,274.5 138.167,274.5 142.5,274.5C 142.5,276.5 142.5,278.5 142.5,280.5C 140.876,280.36 139.71,281.027 139,282.5C 136.989,290.212 134.822,297.879 132.5,305.5C 129.291,306.787 126.125,306.787 123,305.5C 122.179,299.209 120.513,293.209 118,287.5C 116.593,293.88 115.093,300.213 113.5,306.5C 110.428,306.817 107.428,306.484 104.5,305.5C 101.422,297.35 99.0888,289.017 97.5,280.5C 96.1667,280.5 94.8333,280.5 93.5,280.5C 93.5,278.5 93.5,276.5 93.5,274.5C 98.1667,274.5 102.833,274.5 107.5,274.5C 107.5,276.5 107.5,278.5 107.5,280.5C 106.5,280.5 105.5,280.5 104.5,280.5C 105.123,286.079 106.623,291.412 109,296.5C 111.025,289.263 112.525,281.929 113.5,274.5C 116.572,274.183 119.572,274.516 122.5,275.5C 124.396,282.479 126.229,289.479 128,296.5C 129.036,291.357 130.536,286.357 132.5,281.5C 131.675,280.614 130.675,280.281 129.5,280.5 Z"/></g>
<g><path style="opacity:1" fill="#f9faff" d="M 148.5,300.5 C 149.491,294.021 149.824,287.354 149.5,280.5C 148.167,280.5 146.833,280.5 145.5,280.5C 145.5,278.5 145.5,276.5 145.5,274.5C 154.167,274.5 162.833,274.5 171.5,274.5C 171.5,278.167 171.5,281.833 171.5,285.5C 169.167,285.5 166.833,285.5 164.5,285.5C 164.5,283.833 164.5,282.167 164.5,280.5C 161.833,280.5 159.167,280.5 156.5,280.5C 156.5,282.833 156.5,285.167 156.5,287.5C 158.5,287.5 160.5,287.5 162.5,287.5C 162.5,289.5 162.5,291.5 162.5,293.5C 160.5,293.5 158.5,293.5 156.5,293.5C 156.5,295.833 156.5,298.167 156.5,300.5C 159.167,300.5 161.833,300.5 164.5,300.5C 164.5,298.5 164.5,296.5 164.5,294.5C 166.833,294.5 169.167,294.5 171.5,294.5C 171.5,298.5 171.5,302.5 171.5,306.5C 162.833,306.5 154.167,306.5 145.5,306.5C 145.5,304.5 145.5,302.5 145.5,300.5C 146.5,300.5 147.5,300.5 148.5,300.5 Z"/></g>
<g><path style="opacity:1" fill="#fafbff" d="M 192.5,274.5 C 199.421,276.671 201.921,281.337 200,288.5C 196.943,289.529 196.943,290.862 200,292.5C 202.276,299.292 200.11,303.792 193.5,306C 187.509,306.499 181.509,306.666 175.5,306.5C 175.5,304.833 175.5,303.167 175.5,301.5C 176.5,301.5 177.5,301.5 178.5,301.5C 178.825,294.313 178.491,287.313 177.5,280.5C 176.833,280.5 176.167,280.5 175.5,280.5C 175.5,278.5 175.5,276.5 175.5,274.5C 181.167,274.5 186.833,274.5 192.5,274.5 Z"/></g>
<g><path style="opacity:1" fill="#fafbff" d="M 244.5,274.5 C 244.5,276.5 244.5,278.5 244.5,280.5C 243.5,280.5 242.5,280.5 241.5,280.5C 241.5,287.167 241.5,293.833 241.5,300.5C 242.209,301.404 243.209,301.737 244.5,301.5C 244.5,303.167 244.5,304.833 244.5,306.5C 240.167,306.5 235.833,306.5 231.5,306.5C 231.5,304.833 231.5,303.167 231.5,301.5C 232.5,301.5 233.5,301.5 234.5,301.5C 234.825,294.313 234.491,287.313 233.5,280.5C 232.5,280.5 231.5,280.5 230.5,280.5C 230.5,278.5 230.5,276.5 230.5,274.5C 235.167,274.5 239.833,274.5 244.5,274.5 Z"/></g>
<g><path style="opacity:1" fill="#8096ff" d="M 244.5,274.5 C 245.167,274.5 245.833,274.5 246.5,274.5C 246.5,277.833 246.5,281.167 246.5,284.5C 245.833,283.167 245.167,281.833 244.5,280.5C 244.5,278.5 244.5,276.5 244.5,274.5 Z"/></g>
<g><path style="opacity:1" fill="#fcfdff" d="M 246.5,274.5 C 256.167,274.5 265.833,274.5 275.5,274.5C 275.5,277.5 275.5,280.5 275.5,283.5C 273.5,283.5 271.5,283.5 269.5,283.5C 269.737,282.209 269.404,281.209 268.5,280.5C 267.167,280.5 265.833,280.5 264.5,280.5C 264.5,287.167 264.5,293.833 264.5,300.5C 265.209,301.404 266.209,301.737 267.5,301.5C 267.5,303.167 267.5,304.833 267.5,306.5C 262.833,306.5 258.167,306.5 253.5,306.5C 253.5,304.5 253.5,302.5 253.5,300.5C 254.833,300.5 256.167,300.5 257.5,300.5C 257.5,293.833 257.5,287.167 257.5,280.5C 256.167,280.5 254.833,280.5 253.5,280.5C 253.5,281.833 253.5,283.167 253.5,284.5C 251.167,284.5 248.833,284.5 246.5,284.5C 246.5,281.167 246.5,277.833 246.5,274.5 Z"/></g>
<g><path style="opacity:1" fill="#fafbff" d="M 295.5,287.5 C 295.5,289.167 295.5,290.833 295.5,292.5C 293.265,292.205 291.265,292.539 289.5,293.5C 289.5,295.833 289.5,298.167 289.5,300.5C 292.167,300.5 294.833,300.5 297.5,300.5C 297.5,298.833 297.5,297.167 297.5,295.5C 299.833,295.5 302.167,295.5 304.5,295.5C 304.5,299.167 304.5,302.833 304.5,306.5C 295.833,306.5 287.167,306.5 278.5,306.5C 278.5,304.5 278.5,302.5 278.5,300.5C 279.5,300.5 280.5,300.5 281.5,300.5C 282.491,294.021 282.824,287.354 282.5,280.5C 281.167,280.5 279.833,280.5 278.5,280.5C 278.5,278.5 278.5,276.5 278.5,274.5C 287.167,274.5 295.833,274.5 304.5,274.5C 304.5,278.167 304.5,281.833 304.5,285.5C 302.167,285.5 299.833,285.5 297.5,285.5C 297.5,283.833 297.5,282.167 297.5,280.5C 294.833,280.5 292.167,280.5 289.5,280.5C 289.5,282.833 289.5,285.167 289.5,287.5C 291.5,287.5 293.5,287.5 295.5,287.5 Z"/></g>
<g><path style="opacity:1" fill="#b7c4ff" d="M 225.5,278.5 C 226.5,278.5 227.5,278.5 228.5,278.5C 228.5,280.833 228.5,283.167 228.5,285.5C 225.615,285.806 222.948,285.473 220.5,284.5C 222.833,284.5 225.167,284.5 227.5,284.5C 227.741,282.114 227.075,280.114 225.5,278.5 Z"/></g>
<g><path style="opacity:1" fill="#96a9ff" d="M 177.5,280.5 C 178.491,287.313 178.825,294.313 178.5,301.5C 177.5,301.5 176.5,301.5 175.5,301.5C 175.5,303.167 175.5,304.833 175.5,306.5C 174.539,304.735 174.205,302.735 174.5,300.5C 175.5,300.5 176.5,300.5 177.5,300.5C 177.5,293.833 177.5,287.167 177.5,280.5 Z"/></g>
<g><path style="opacity:1" fill="#5a75ff" d="M 185.5,280.5 C 187.857,280.337 190.19,280.503 192.5,281C 193.805,286.524 191.472,288.691 185.5,287.5C 185.5,285.167 185.5,282.833 185.5,280.5 Z"/></g>
<g><path style="opacity:1" fill="#91a3ff" d="M 233.5,280.5 C 234.491,287.313 234.825,294.313 234.5,301.5C 233.5,301.5 232.5,301.5 231.5,301.5C 231.5,303.167 231.5,304.833 231.5,306.5C 230.539,304.735 230.205,302.735 230.5,300.5C 231.5,300.5 232.5,300.5 233.5,300.5C 233.5,293.833 233.5,287.167 233.5,280.5 Z"/></g>
<g><path style="opacity:1" fill="#a6b6ff" d="M 145.5,280.5 C 146.833,280.5 148.167,280.5 149.5,280.5C 149.824,287.354 149.491,294.021 148.5,300.5C 148.5,294.167 148.5,287.833 148.5,281.5C 147.209,281.737 146.209,281.404 145.5,280.5 Z"/></g>
<g><path style="opacity:1" fill="#a6b5ff" d="M 278.5,280.5 C 279.833,280.5 281.167,280.5 282.5,280.5C 282.824,287.354 282.491,294.021 281.5,300.5C 281.5,294.167 281.5,287.833 281.5,281.5C 280.209,281.737 279.209,281.404 278.5,280.5 Z"/></g>
<g><path style="opacity:1" fill="#ced5ff" d="M 275.5,274.5 C 276.479,277.625 276.813,280.958 276.5,284.5C 273.833,284.5 271.167,284.5 268.5,284.5C 268.5,283.167 268.5,281.833 268.5,280.5C 269.404,281.209 269.737,282.209 269.5,283.5C 271.5,283.5 273.5,283.5 275.5,283.5C 275.5,280.5 275.5,277.5 275.5,274.5 Z"/></g>
<g><path style="opacity:1" fill="#b4c0ff" d="M 295.5,287.5 C 296.461,289.265 296.795,291.265 296.5,293.5C 294.167,293.5 291.833,293.5 289.5,293.5C 291.265,292.539 293.265,292.205 295.5,292.5C 295.5,290.833 295.5,289.167 295.5,287.5 Z"/></g>
<g><path style="opacity:1" fill="#5472ff" d="M 185.5,293.5 C 187.857,293.337 190.19,293.503 192.5,294C 193.767,295.796 193.767,297.629 192.5,299.5C 190.257,300.474 187.924,300.808 185.5,300.5C 185.5,298.167 185.5,295.833 185.5,293.5 Z"/></g>
<g><path style="opacity:1" fill="#a0afff" d="M 241.5,300.5 C 242.833,300.5 244.167,300.5 245.5,300.5C 245.795,302.735 245.461,304.735 244.5,306.5C 244.5,304.833 244.5,303.167 244.5,301.5C 243.209,301.737 242.209,301.404 241.5,300.5 Z"/></g>
<g><path style="opacity:1" fill="#a8b7ff" d="M 264.5,300.5 C 265.833,300.5 267.167,300.5 268.5,300.5C 268.795,302.735 268.461,304.735 267.5,306.5C 267.5,304.833 267.5,303.167 267.5,301.5C 266.209,301.737 265.209,301.404 264.5,300.5 Z"/></g>
</svg>
